<svg width="201" height="66" viewBox="0 0 201 66" fill="none" xmlns="http://www.w3.org/2000/svg">
<path d="M57.1369 64.6082C56.81 63.7562 57.1229 63.5085 58.8545 63.2488C61.6739 62.826 61.5093 64.3213 61.5163 39.0733C61.5233 15.2357 61.7001 11.4709 62.9285 9.06311C64.1847 6.60081 66.6375 4.25077 68.793 3.44428C74.1293 1.44771 81.6184 3.80532 81.6184 7.4818C81.6184 8.98317 80.8355 9.78307 79.3661 9.78307C78.1649 9.78307 77.427 9.15859 75.4664 6.48244C74.2087 4.76562 72.5991 4.04285 71.0334 4.49187C67.5959 5.47773 66.9051 7.08459 66.604 14.7953L66.3739 20.6894L69.3218 20.7925C72.074 20.8887 72.2773 20.9483 72.3825 21.6893C72.4919 22.4595 72.4054 22.4831 69.4721 22.4831H66.4489V43.8261V65.1692H61.9006C58.0683 65.1692 57.3183 65.0809 57.1369 64.6082ZM96.4351 64.1325C96.4351 63.5856 96.7708 63.4002 98.1107 63.2074C101.294 62.7493 101.021 65.3926 101.021 34.9686C101.021 15.4115 100.91 7.80857 100.615 7.16062C100.203 6.25592 99.9786 6.13586 97.9344 5.72443C97.1471 5.56599 96.7878 5.29318 96.7878 4.85389C96.7878 4.06722 97.4617 3.7875 99.3743 3.78034C100.183 3.77734 101.797 3.54484 102.961 3.26374C104.126 2.98264 105.356 2.74699 105.695 2.74008C106.279 2.72818 106.313 4.43622 106.313 33.772V64.8164H101.374C96.7223 64.8164 96.4351 64.7766 96.4351 64.1325ZM9.75263 51.62C3.59513 49.6319 0.0733379 44.6512 0.00116793 37.8289C-0.0639321 31.6751 2.59248 27.1773 7.96336 24.3475C9.71511 23.4246 10.0953 23.365 14.2378 23.365C18.5087 23.365 18.7152 23.4004 20.7953 24.4878C23.2418 25.7668 26.1187 28.7053 27.287 31.1186C29.0541 34.769 29.0243 40.7554 27.2198 44.6107C26.1033 46.996 23.4752 49.486 20.6727 50.8136C18.5533 51.8175 17.9111 51.9487 14.767 52.02C12.5422 52.0705 10.6902 51.9227 9.75263 51.62ZM18.0074 49.6153C19.8756 48.7109 21.5366 46.765 22.0454 44.8845C23.0518 41.1651 22.9997 33.7237 21.9426 30.1953C21.3614 28.2555 19.4507 26.1739 17.604 25.4686C16.4924 25.0441 15.3221 24.9113 13.566 25.0105C8.90865 25.2737 6.81451 27.7521 5.88332 34.103C5.42637 37.2196 5.42554 38.0798 5.87632 41.156C6.50759 45.4614 7.46854 47.5609 9.42354 48.9059C11.185 50.1178 11.6826 50.2587 14.3908 50.3116C15.8597 50.3403 16.9389 50.1326 18.0074 49.6153ZM119.718 51.8044C115.764 50.5105 112.493 47.6801 110.784 44.0733C109.727 41.8413 109.664 41.4832 109.669 37.6525C109.673 33.9923 109.767 33.3961 110.625 31.5562C112.016 28.5716 114.96 25.6519 117.983 24.2586C120.403 23.143 120.567 23.1174 124.414 23.2559C127.892 23.3811 128.589 23.5158 130.272 24.3873C132.815 25.7039 135.771 28.718 136.867 31.1115C139.566 37.0082 138.313 44.1844 133.855 48.3545C130.977 51.0461 128.744 51.8999 124.304 52.0051C122.267 52.0534 120.203 51.9631 119.718 51.8044ZM128.603 49.018C131.54 46.9973 132.574 43.5333 132.352 36.4583C132.222 32.29 132.107 31.6109 131.196 29.6034C129.798 26.5246 127.895 25.1993 124.601 25.0109C120.663 24.7857 118.32 26.0285 116.716 29.1923C114.618 33.3344 114.624 41.9829 116.729 46.1368C118.292 49.2217 120.476 50.4006 124.327 50.2372C126.64 50.1391 127.21 49.9765 128.603 49.018ZM140.532 47.5562C140.532 43.3945 140.593 42.9453 141.15 42.9559C141.56 42.9639 142.181 43.8134 143.002 45.4882C144.408 48.3596 146.054 49.8887 148.276 50.3879C152.197 51.2689 155.256 48.2949 154.255 44.5758C153.753 42.7117 152.621 41.7306 148.346 39.4529C142.467 36.3211 140.557 34.1503 140.54 30.578C140.53 28.4993 141.962 25.5957 143.623 24.3294C144.66 23.5382 145.315 23.351 147.415 23.2449C150.12 23.1084 151.404 23.5168 152.67 24.9164C153.563 25.9026 153.8 25.8546 154.238 24.5997C154.486 23.8875 154.843 23.5414 155.331 23.5414C156.02 23.5414 156.055 23.7408 156.055 27.7747C156.055 31.7033 156.006 32.0081 155.382 32.0081C154.898 32.0081 154.554 31.551 154.152 30.3721C152.991 26.965 150.666 24.9561 147.879 24.9538C144.888 24.9518 142.974 27.6212 144.07 30.2675C144.611 31.5731 146.365 32.7903 150.763 34.9101C156.231 37.5459 157.908 39.7126 157.936 44.1789C157.956 47.3277 157.069 49.1553 154.734 50.7715C153.261 51.7914 152.725 51.9487 150.348 52.0609C147.922 52.1754 147.452 52.0867 145.844 51.2113C144.856 50.6736 143.867 50.016 143.646 49.7498C143.321 49.358 143.102 49.52 142.496 50.5999C142.085 51.3337 141.474 51.9867 141.14 52.0511C140.59 52.157 140.532 51.731 140.532 47.5562ZM76.963 51.0438C74.4114 49.6962 73.1385 47.0245 73.8281 44.4637C74.7712 40.9613 78.1546 38.386 86.3378 34.9422C88.4958 34.034 90.4442 33.1546 90.6677 32.9879C91.1413 32.6346 90.9408 28.8466 90.3686 27.3369C89.7393 25.6769 87.8184 24.7761 84.9074 24.7761C81.6764 24.7761 80.6447 25.4528 79.7537 28.1564C79.4073 29.2077 78.7944 30.3456 78.3917 30.6852C77.3097 31.5976 75.7537 31.48 75.0683 30.434C74.279 29.2292 74.8934 27.49 76.6781 25.8777C79.2719 23.5343 79.8544 23.365 85.3226 23.365C90.8251 23.365 91.9763 23.6923 94.1621 25.8781C95.8784 27.5944 96.0823 29.2209 96.0823 41.1977C96.0823 51.7465 96.0813 51.7636 95.3302 51.7636C94.0656 51.7636 92.3486 50.4407 91.6753 48.9474C91.3238 48.168 90.9723 47.5303 90.8941 47.5303C90.8159 47.5303 89.7005 48.1645 88.4153 48.9396C83.7003 51.7834 79.7409 52.5108 76.963 51.0438ZM86.786 47.8565C87.9214 47.2598 89.3663 46.3786 89.9969 45.8983L91.1434 45.0249V40.104C91.1434 34.2598 91.3843 34.4399 86.6502 36.7441C81.5847 39.2095 79.5017 41.5251 79.5017 44.6907C79.5017 46.3176 80.2353 48.0116 81.1774 48.5604C82.3872 49.265 84.6452 48.9816 86.786 47.8565ZM28.7017 50.222C28.7017 49.4878 28.9033 49.3632 30.356 49.1995C31.3719 49.085 32.1886 48.769 32.4726 48.3806C32.8281 47.8946 32.9351 45.453 32.9351 37.8289C32.9351 30.2048 32.8281 27.7633 32.4726 27.2772C32.1886 26.8888 31.3719 26.5728 30.356 26.4583C28.9421 26.299 28.7017 26.1589 28.7017 25.4941C28.7017 24.7978 29.0621 24.6361 32.1413 23.9505C37.4692 22.7642 37.5048 22.7792 38.0552 26.4498L38.2966 28.059L39.7609 26.6283C40.5664 25.8414 42.2192 24.7299 43.4338 24.1582C45.4585 23.2053 45.904 23.129 48.784 23.2419C51.5969 23.3521 52.0856 23.476 53.4546 24.4257C54.4229 25.0974 55.3071 26.1325 55.8656 27.2479L56.7476 29.0095V39.9456V50.8817H51.9851C47.4577 50.8817 47.2226 50.8468 47.2226 50.1761C47.2226 49.5964 47.5221 49.4361 48.9023 49.2775C51.6434 48.9625 51.6949 48.8315 51.9009 41.648C52.0002 38.1839 51.9629 33.7679 51.8179 31.8345C51.5599 28.3944 51.5266 28.2916 50.2529 27.018C47.6167 24.3818 43.8673 24.9486 40.2552 28.5296L38.2267 30.5405V40.7993V51.0581H33.4642H28.7017L28.7017 50.222Z" fill="#BFBFBF"/>
<path d="M112.622 14.6753C115.485 17.5722 118.825 19.4625 123.07 20.589C127.221 21.6908 132.621 21.5706 137.886 20.2594C143.663 18.8207 145.562 18.023 158.524 11.5897C167.957 6.90804 168.82 6.50986 172.811 4.99819C176.33 3.66572 177.953 3.21895 182.266 2.39613C188.247 1.25511 190.942 1.44462 199.799 3.62889C200.624 3.83244 200.613 3.80088 199.623 3.13729C198.697 2.51704 197.408 2.10393 191.685 0.593746C189.523 0.0232021 181.448 -0.198061 177.574 0.207067C173.727 0.609318 166.29 2.17263 162.149 3.44933C160.834 3.85478 157.139 5.03153 153.938 6.06432C144.355 9.15563 140.856 10.2163 137.886 10.9287C124.972 14.0275 114.266 13.4237 109.608 9.33388C106.904 6.95944 109.442 11.4583 112.622 14.6753Z" fill="#BC377D"/>
</svg>
