<svg width="3118" height="726" viewBox="0 0 3118 726" fill="none" xmlns="http://www.w3.org/2000/svg">
<path d="M140.979 499.334C238.099 597.904 351.369 662.222 495.346 700.552C636.157 738.04 819.318 733.951 997.896 689.334C1193.82 640.383 1258.23 613.241 1697.88 394.346C2017.82 235.05 2047.09 221.501 2182.48 170.066C2301.81 124.728 2356.87 109.526 2503.16 81.5296C2706.02 42.7058 2797.44 49.1539 3097.83 123.475C3125.83 130.401 3125.44 129.327 3091.85 106.748C3060.45 85.6436 3016.73 71.5873 2822.63 20.2025C2749.3 0.789463 2475.43 -6.73911 2344.01 7.04557C2213.53 20.7324 1961.27 73.9249 1820.84 117.365C1776.24 131.161 1650.91 171.2 1542.32 206.342C1217.31 311.525 1098.6 347.613 997.896 371.854C559.854 477.292 196.753 456.749 38.7599 317.59C-52.9655 236.798 33.1301 389.875 140.979 499.334Z" fill="#BC377D" fill-opacity="0.2"/>
</svg>
